<svg xmlns="http://www.w3.org/2000/svg" version="1.1" xmlns:xlink="http://www.w3.org/1999/xlink" xmlns:svgjs="http://svgjs.dev/svgjs" width="1000" height="1000" viewBox="0 0 1000 1000"><rect width="1000" height="1000" fill="#000000"></rect><g transform="matrix(0.7,0,0,0.7,149.57575757575756,282.1265587044535)"><svg viewBox="0 0 396 247" data-background-color="#ffffff" preserveAspectRatio="xMidYMid meet" height="623" width="1000" xmlns="http://www.w3.org/2000/svg" xmlns:xlink="http://www.w3.org/1999/xlink"><g id="tight-bounds" transform="matrix(1,0,0,1,0.2400000000000091,-0.09999999999999432)"><svg viewBox="0 0 395.52 247.2" height="247.2" width="395.52"><g><svg></svg></g><g><svg viewBox="0 0 395.52 247.2" height="247.2" width="395.52"><g transform="matrix(1,0,0,1,75.54432000000001,85.81105680712167)"><svg viewBox="0 0 244.43135999999996 75.57788638575666" height="75.57788638575666" width="244.43135999999996"><g><svg viewBox="0 0 244.43135999999996 75.57788638575666" height="75.57788638575666" width="244.43135999999996"><g><svg viewBox="0 0 244.43136 75.57788638575667" height="75.57788638575666" width="244.43135999999996"><g><svg viewBox="0 0 244.43136 75.57788638575667" height="75.57788638575667" width="244.43136"><g id="textblocktransform"><svg viewBox="0 0 244.43136 75.57788638575667" height="75.57788638575667" width="244.43136" id="textblock"><g><svg viewBox="0 0 244.43136 75.57788638575667" height="75.57788638575667" width="244.43136"><g transform="matrix(1,0,0,1,0,0)"><svg width="244.43136" viewBox="-1.7599999904632568 -36.66999816894531 164.5399932861328 50.87999725341797" height="75.57788638575667" data-palette-color="#323660"><path d="M12.84 1.76L12.84 1.76Q9.38 1.76 7.45 0.85 5.52-0.05 4.57-1.71 3.61-3.37 3.42-5.71 3.22-8.06 3.22-10.94L3.22-10.94Q3.22-13.23 3.37-15.55 3.52-17.87 3.81-20.51L3.81-20.51Q3.13-20.51 2.73-20.48 2.34-20.46 2.1-20.46L2.1-20.46Q0.54-20.46-0.61-21.14-1.76-21.83-1.76-23.24L-1.76-23.24Q-1.76-24.12-1.1-24.8-0.44-25.49 0.59-25.98 1.61-26.46 2.81-26.76 4-27.05 5.08-27.15L5.08-27.15Q5.08-28.52 5.27-30.18 5.47-31.84 5.98-33.28 6.49-34.72 7.37-35.69 8.25-36.67 9.62-36.67L9.62-36.67Q10.4-36.67 11.01-36.21 11.62-35.74 12.01-35.03 12.4-34.33 12.6-33.45 12.79-32.57 12.79-31.74L12.79-31.74Q12.79-30.76 12.65-29.74 12.5-28.71 12.11-27.2L12.11-27.2Q12.94-27.29 13.23-27.32 13.53-27.34 13.77-27.34L13.77-27.34Q14.6-27.34 15.5-27.2 16.41-27.05 17.16-26.71 17.92-26.37 18.41-25.81 18.9-25.24 18.9-24.46L18.9-24.46Q18.9-23.58 18.19-22.9 17.48-22.22 16.41-21.73 15.33-21.24 14.11-20.97 12.89-20.7 11.82-20.61L11.82-20.61Q11.52-18.6 11.4-16.92 11.28-15.23 11.13-13.53L11.13-13.53Q11.04-12.7 10.96-11.84 10.89-10.99 10.89-10.11L10.89-10.11Q10.89-9.47 10.94-8.62 10.99-7.76 11.28-6.98 11.57-6.2 12.21-5.64 12.84-5.08 13.96-5.08L13.96-5.08Q14.65-5.08 15.38-5.2 16.11-5.32 16.85-5.32L16.85-5.32Q18.12-5.32 18.68-4.44 19.24-3.56 19.24-2.2L19.24-2.2Q19.24-1.17 18.63-0.42 18.02 0.34 17.09 0.81 16.16 1.27 15.01 1.51 13.87 1.76 12.84 1.76ZM29.49 1.42L29.49 1.42Q27 1.42 25.14 0.1 23.29-1.22 22.02-3.27 20.75-5.32 20.11-7.84 19.48-10.35 19.48-12.79L19.48-12.79Q19.48-15.38 20.11-18.14 20.75-20.9 22.07-23.17 23.39-25.44 25.44-26.88 27.49-28.32 30.32-28.32L30.32-28.32Q33.05-28.32 34.98-26.83 36.91-25.34 38.08-23.12 39.26-20.9 39.74-18.26 40.23-15.63 40.09-13.28L40.09-13.28Q39.94-10.69 39.28-8.06 38.62-5.42 37.35-3.32 36.08-1.22 34.13 0.1 32.18 1.42 29.49 1.42ZM29.98-20.65L29.98-20.65Q29.25-20.65 28.68-19.87 28.12-19.09 27.76-17.97 27.39-16.85 27.19-15.6 27-14.36 27-13.43L27-13.43Q27-12.26 27.22-10.89 27.44-9.52 27.83-8.37 28.22-7.23 28.78-6.47 29.34-5.71 30.08-5.71L30.08-5.71Q30.86-5.71 31.42-6.45 31.98-7.18 32.32-8.3 32.66-9.42 32.81-10.77 32.96-12.11 32.96-13.28L32.96-13.28Q32.96-14.36 32.76-15.65 32.57-16.94 32.2-18.07 31.83-19.19 31.27-19.92 30.71-20.65 29.98-20.65ZM56.44 1.37L56.44 1.37Q55.61 1.37 55.12 0.61 54.63-0.15 54.39-1.12 54.15-2.1 54.07-3.1 54-4.1 54-4.64L54-4.64Q54-6.1 54.17-7.57 54.34-9.03 54.56-10.5 54.78-11.96 54.95-13.43 55.12-14.89 55.12-16.36L55.12-16.36Q55.12-16.94 55.07-17.63 55.02-18.31 54.85-18.92 54.68-19.53 54.29-19.92 53.9-20.31 53.27-20.31L53.27-20.31Q52.83-20.31 52.29-19.6 51.75-18.9 51.29-17.99 50.83-17.09 50.51-16.19 50.19-15.28 50.19-14.84L50.19-14.84Q50.19-13.77 50.21-12.67 50.24-11.57 50.24-10.45L50.24-10.45 50.24-7.62Q50.19-6.74 50.09-5.81 50-4.88 49.8-4L49.8-4Q49.65-3.13 49.36-2.32 49.07-1.51 48.6-0.9 48.14-0.29 47.5 0.1 46.87 0.49 45.99 0.49L45.99 0.49Q45.01 0.49 44.38-0.15 43.75-0.78 43.35-1.78 42.96-2.78 42.79-4.03 42.62-5.27 42.55-6.47 42.48-7.67 42.5-8.67 42.52-9.67 42.52-10.25L42.52-10.25 42.52-12.55Q42.52-14.4 42.45-16.21 42.38-18.02 42.38-19.82L42.38-19.82Q42.38-20.8 42.4-22.31 42.43-23.83 42.77-25.27 43.11-26.71 43.89-27.73 44.67-28.76 46.19-28.76L46.19-28.76Q46.87-28.76 47.41-28.32 47.94-27.88 48.36-27.25 48.77-26.61 49.04-25.88 49.31-25.15 49.46-24.61L49.46-24.61Q49.95-25.29 50.61-25.93 51.26-26.56 52.09-27.05 52.92-27.54 53.95-27.83 54.98-28.13 56.29-28.13L56.29-28.13Q58.78-28.13 60.18-26.93 61.57-25.73 62.23-23.95 62.89-22.17 63.03-20.12 63.18-18.07 63.18-16.41L63.18-16.41Q63.18-15.58 63.03-13.94 62.89-12.3 62.57-10.33 62.25-8.35 61.71-6.27 61.18-4.2 60.44-2.49 59.71-0.78 58.71 0.29 57.71 1.37 56.44 1.37ZM76.51 14.21L76.51 14.21Q75.33 14.21 73.85 13.84 72.36 13.48 71.04 12.79 69.72 12.11 68.82 11.13 67.91 10.16 67.91 8.89L67.91 8.89Q67.91 8.4 68.16 7.91 68.4 7.42 68.82 7.06 69.23 6.69 69.72 6.47 70.21 6.25 70.74 6.25L70.74 6.25Q71.33 6.25 71.89 6.42 72.45 6.59 73.04 6.84L73.04 6.84Q73.67 7.08 74.28 7.28 74.89 7.47 75.58 7.47L75.58 7.47Q76.8 7.47 77.7 6.64 78.61 5.81 79.24 4.47 79.88 3.13 80.27 1.49 80.66-0.15 80.88-1.76 81.1-3.37 81.19-4.79 81.29-6.2 81.34-7.08L81.34-7.08Q79.63-4.49 77.95-3.1 76.26-1.71 73.82-1.71L73.82-1.71Q71.97-1.71 70.57-2.49 69.18-3.27 68.21-4.54 67.23-5.81 66.59-7.45 65.96-9.08 65.64-10.84 65.32-12.6 65.23-14.28 65.13-15.97 65.23-17.38L65.23-17.38Q65.28-18.46 65.5-20.19 65.72-21.92 66.2-23.58 66.69-25.24 67.57-26.39 68.45-27.54 69.87-27.44L69.87-27.44Q70.79-27.39 71.38-26.64 71.97-25.88 72.33-24.76 72.7-23.63 72.87-22.29 73.04-20.95 73.09-19.63 73.14-18.31 73.11-17.21 73.09-16.11 73.09-15.53L73.09-15.53Q73.09-14.7 73.14-13.87 73.19-13.04 73.48-12.38 73.77-11.72 74.38-11.33 74.99-10.94 76.12-10.94L76.12-10.94Q77.39-10.94 78.14-11.57 78.9-12.21 79.26-13.16 79.63-14.11 79.73-15.21 79.83-16.31 79.83-17.29L79.83-17.29Q79.83-17.97 79.83-18.95 79.83-19.92 79.85-21 79.88-22.07 80.05-23.12 80.22-24.17 80.58-25.02 80.95-25.88 81.56-26.42 82.17-26.95 83.15-26.95L83.15-26.95Q84.37-26.95 85.25-26 86.13-25.05 86.74-23.51 87.35-21.97 87.71-20.12 88.08-18.26 88.27-16.43 88.47-14.6 88.54-13.06 88.62-11.52 88.62-10.64L88.62-10.64Q88.62-8.59 88.47-5.98 88.32-3.37 87.91-0.61 87.49 2.15 86.66 4.81 85.83 7.47 84.49 9.57 83.15 11.67 81.19 12.94 79.24 14.21 76.51 14.21ZM117.86-26.86L117.86-26.86Q117.86-25.44 116.91-24.76 115.95-24.07 114.78-23.46 113.61-22.85 112.66-22.02 111.71-21.19 111.71-19.53L111.71-19.53Q111.71-18.65 112.12-18.02 112.54-17.38 113.15-16.87 113.76-16.36 114.49-15.82 115.22-15.28 115.83-14.6 116.44-13.92 116.86-12.94 117.27-11.96 117.27-10.55L117.27-10.55Q117.27-8.5 116.22-6.52 115.17-4.54 113.54-3 111.9-1.46 109.85-0.54 107.8 0.39 105.8 0.39L105.8 0.39Q104.97 0.39 104.14 0.27 103.31 0.15 102.65-0.2 101.99-0.54 101.55-1.15 101.11-1.76 101.11-2.73L101.11-2.73Q101.11-4.1 101.65-4.86 102.18-5.62 103.01-6.05 103.84-6.49 104.8-6.74 105.75-6.98 106.58-7.35 107.41-7.71 107.95-8.3 108.48-8.89 108.48-9.96L108.48-9.96Q108.48-10.99 107.68-12.08 106.87-13.18 105.9-14.43 104.92-15.67 104.11-17.09 103.31-18.51 103.31-20.21L103.31-20.21Q103.31-22.31 104.16-24.1 105.02-25.88 106.46-27.2 107.9-28.52 109.75-29.27 111.61-30.03 113.66-30.03L113.66-30.03Q114.44-30.03 115.2-29.88 115.95-29.74 116.54-29.37 117.13-29 117.49-28.39 117.86-27.78 117.86-26.86ZM129.09 1.42L129.09 1.42Q126.6 1.42 124.74 0.1 122.89-1.22 121.62-3.27 120.35-5.32 119.71-7.84 119.08-10.35 119.08-12.79L119.08-12.79Q119.08-15.38 119.71-18.14 120.35-20.9 121.66-23.17 122.98-25.44 125.03-26.88 127.08-28.32 129.92-28.32L129.92-28.32Q132.65-28.32 134.58-26.83 136.51-25.34 137.68-23.12 138.85-20.9 139.34-18.26 139.83-15.63 139.68-13.28L139.68-13.28Q139.54-10.69 138.88-8.06 138.22-5.42 136.95-3.32 135.68-1.22 133.73 0.1 131.77 1.42 129.09 1.42ZM129.57-20.65L129.57-20.65Q128.84-20.65 128.28-19.87 127.72-19.09 127.35-17.97 126.99-16.85 126.79-15.6 126.6-14.36 126.6-13.43L126.6-13.43Q126.6-12.26 126.82-10.89 127.04-9.52 127.43-8.37 127.82-7.23 128.38-6.47 128.94-5.71 129.67-5.71L129.67-5.71Q130.45-5.71 131.02-6.45 131.58-7.18 131.92-8.3 132.26-9.42 132.41-10.77 132.55-12.11 132.55-13.28L132.55-13.28Q132.55-14.36 132.36-15.65 132.16-16.94 131.8-18.07 131.43-19.19 130.87-19.92 130.31-20.65 129.57-20.65ZM156.04 1.37L156.04 1.37Q155.21 1.37 154.72 0.61 154.23-0.15 153.99-1.12 153.74-2.1 153.67-3.1 153.6-4.1 153.6-4.64L153.6-4.64Q153.6-6.1 153.77-7.57 153.94-9.03 154.16-10.5 154.38-11.96 154.55-13.43 154.72-14.89 154.72-16.36L154.72-16.36Q154.72-16.94 154.67-17.63 154.62-18.31 154.45-18.92 154.28-19.53 153.89-19.92 153.5-20.31 152.86-20.31L152.86-20.31Q152.42-20.31 151.89-19.6 151.35-18.9 150.89-17.99 150.42-17.09 150.1-16.19 149.79-15.28 149.79-14.84L149.79-14.84Q149.79-13.77 149.81-12.67 149.84-11.57 149.84-10.45L149.84-10.45 149.84-7.62Q149.79-6.74 149.69-5.81 149.59-4.88 149.4-4L149.4-4Q149.25-3.13 148.96-2.32 148.66-1.51 148.2-0.9 147.74-0.29 147.1 0.1 146.47 0.49 145.59 0.49L145.59 0.49Q144.61 0.49 143.98-0.15 143.34-0.78 142.95-1.78 142.56-2.78 142.39-4.03 142.22-5.27 142.15-6.47 142.07-7.67 142.1-8.67 142.12-9.67 142.12-10.25L142.12-10.25 142.12-12.55Q142.12-14.4 142.05-16.21 141.97-18.02 141.97-19.82L141.97-19.82Q141.97-20.8 142-22.31 142.02-23.83 142.37-25.27 142.71-26.71 143.49-27.73 144.27-28.76 145.78-28.76L145.78-28.76Q146.47-28.76 147-28.32 147.54-27.88 147.96-27.25 148.37-26.61 148.64-25.88 148.91-25.15 149.05-24.61L149.05-24.61Q149.54-25.29 150.2-25.93 150.86-26.56 151.69-27.05 152.52-27.54 153.55-27.83 154.57-28.13 155.89-28.13L155.89-28.13Q158.38-28.13 159.77-26.93 161.16-25.73 161.82-23.95 162.48-22.17 162.63-20.12 162.78-18.07 162.78-16.41L162.78-16.41Q162.78-15.58 162.63-13.94 162.48-12.3 162.17-10.33 161.85-8.35 161.31-6.27 160.77-4.2 160.04-2.49 159.31-0.78 158.31 0.29 157.31 1.37 156.04 1.37Z" opacity="1" transform="matrix(1,0,0,1,0,0)" fill="#ffffff" class="wordmark-text-0" data-fill-palette-color="primary" id="text-0"></path></svg></g></svg></g></svg></g></svg></g></svg></g></svg></g></svg></g><g><path d="M0 123.6c0-68.262 55.338-123.6 123.6-123.6 51.734 0 96.044 31.784 114.469 76.89l-3.691 0c-18.229-43.178-60.964-73.482-110.778-73.482-66.38 0-120.192 53.812-120.192 120.192 0 66.38 53.812 120.192 120.192 120.192 49.814 0 92.55-30.304 110.778-73.482h3.691c-18.425 45.106-62.735 76.89-114.469 76.89-68.262 0-123.6-55.338-123.6-123.6z" fill="#ffffff" stroke="transparent" data-fill-palette-color="tertiary"></path></g></svg></g><defs></defs></svg><rect width="395.52" height="247.2" fill="none" stroke="none" visibility="hidden"></rect></g></svg></g></svg>